<?xml version="1.0" standalone="no"?>
<!DOCTYPE svg PUBLIC "-//W3C//DTD SVG 20010904//EN"
 "http://www.w3.org/TR/2001/REC-SVG-20010904/DTD/svg10.dtd">
<svg version="1.0" xmlns="http://www.w3.org/2000/svg"
 width="2048.000000pt" height="878.000000pt" viewBox="0 0 2048.000000 878.000000"
 preserveAspectRatio="xMidYMid meet">

<g transform="translate(0.000000,878.000000) scale(0.100000,-0.100000)"
fill="#000000" stroke="none">
<path d="M4340 7007 c-59 -17 -188 -82 -220 -110 -77 -68 -142 -180 -159 -274
-33 -177 11 -334 127 -453 71 -72 121 -103 218 -135 l77 -25 1056 -1 c581 -1
1067 -4 1080 -8 13 -3 37 -26 55 -50 l31 -43 6 -316 c7 -341 10 -368 66 -469
35 -61 126 -152 188 -187 58 -33 179 -66 241 -66 72 0 180 28 241 62 32 18 88
61 124 98 72 72 111 144 129 238 13 71 14 934 1 980 -20 69 -101 132 -170 132
-55 0 -119 -38 -149 -90 l-27 -45 -5 -455 c-5 -432 -6 -457 -25 -489 -27 -47
-83 -74 -130 -65 -49 9 -102 57 -114 102 -6 21 -10 168 -11 329 0 285 -1 293
-25 357 -64 170 -183 279 -370 340 -45 14 -160 16 -1108 16 -1165 0 -1095 -4
-1134 62 -33 56 -34 77 -8 129 14 26 28 50 33 53 5 3 44 14 88 26 96 26 116
38 151 93 75 117 -9 266 -155 274 -31 1 -77 -3 -102 -10z"/>
<path d="M5140 5824 c-94 -22 -215 -61 -258 -84 -20 -11 -40 -20 -44 -20 -9 0
-123 -77 -193 -131 -104 -81 -258 -252 -309 -344 -10 -16 -30 -52 -46 -80 -58
-100 -39 -158 119 -375 46 -62 170 -193 223 -235 36 -29 152 -107 171 -115 12
-6 29 -14 37 -19 38 -23 123 -61 136 -61 8 0 40 -9 71 -20 138 -47 428 -44
587 5 286 90 570 328 716 599 35 66 43 89 42 132 0 32 -7 63 -18 81 -129 208
-218 316 -349 422 -158 128 -280 189 -465 233 -112 27 -328 33 -420 12z m380
-377 c128 -42 171 -65 283 -157 76 -60 187 -192 187 -220 0 -10 -17 -40 -38
-67 -21 -26 -43 -55 -48 -64 -13 -23 -116 -107 -193 -158 -214 -141 -473 -156
-699 -40 -99 51 -120 68 -239 187 -130 130 -131 136 -39 243 70 82 202 192
271 225 44 22 181 69 225 78 58 11 216 -4 290 -27z"/>
<path d="M5245 5353 c-33 -9 -108 -56 -133 -83 -51 -56 -74 -118 -74 -200 0
-69 3 -85 32 -138 38 -71 46 -79 125 -123 53 -29 69 -33 130 -33 116 2 202 53
266 159 21 35 24 52 24 135 -1 81 -4 101 -25 135 -61 104 -130 146 -245 151
-44 1 -89 0 -100 -3z"/>
<path d="M3404 5240 c-60 -17 -80 -27 -157 -78 -52 -35 -128 -134 -163 -212
l-29 -65 0 -506 0 -505 25 -37 c17 -25 44 -45 84 -63 52 -23 63 -25 96 -15 57
17 103 52 125 96 19 38 20 66 25 490 3 306 9 458 16 475 35 76 142 99 207 44
19 -16 37 -38 41 -49 3 -11 6 -146 6 -300 0 -264 2 -285 24 -367 54 -194 196
-331 392 -378 83 -19 114 -20 1119 -20 627 0 1044 -4 1059 -9 13 -6 36 -27 50
-48 56 -81 18 -178 -78 -202 -31 -8 -255 -11 -720 -11 -585 0 -683 -2 -738
-16 -75 -19 -164 -64 -211 -108 -44 -41 -117 -131 -117 -145 0 -6 -10 -30 -22
-53 -21 -39 -23 -56 -22 -178 1 -129 2 -138 32 -202 17 -36 36 -69 42 -73 13
-8 13 -82 0 -90 -6 -4 -25 -37 -42 -73 -30 -64 -32 -72 -32 -197 -1 -122 1
-134 28 -195 44 -100 129 -200 201 -238 22 -12 65 -31 95 -44 54 -23 59 -23
471 -23 388 0 418 1 450 19 59 31 84 78 84 156 0 57 -4 73 -28 108 -16 22 -43
46 -60 54 -23 9 -137 14 -414 18 -433 6 -414 2 -463 92 -24 46 -24 46 -6 86
24 53 51 77 101 91 25 7 166 11 379 11 229 0 351 4 378 12 111 33 155 194 77
283 -57 65 -58 65 -461 65 -334 0 -366 1 -398 19 -45 24 -70 59 -77 108 -7 54
15 94 71 127 l45 26 705 0 706 0 71 25 c39 13 99 44 133 69 59 42 136 123 136
144 0 5 9 21 20 35 11 14 23 40 26 59 3 18 13 55 21 81 17 56 14 125 -11 216
-45 162 -136 263 -306 341 l-55 25 -1085 5 c-1206 6 -1120 0 -1172 72 -23 32
-23 38 -29 358 -5 290 -8 331 -26 377 -11 28 -24 58 -30 65 -6 7 -18 27 -27
45 -39 77 -183 180 -288 206 -84 21 -195 20 -274 -3z"/>
<path d="M13400 4315 c0 -749 0 -755 22 -812 29 -79 112 -162 191 -191 54 -21
75 -22 357 -22 l300 0 0 180 0 180 -255 0 -255 0 0 325 0 325 255 0 255 0 0
180 0 180 -255 0 -255 0 0 205 0 205 -180 0 -180 0 0 -755z"/>
<path d="M8510 4991 c-104 -21 -202 -99 -248 -199 l-27 -57 0 -595 0 -595 28
-56 c36 -75 117 -150 190 -177 57 -22 65 -22 767 -22 l710 0 0 185 0 185 -665
0 -665 0 0 485 0 485 665 0 665 0 0 185 0 185 -692 -1 c-381 -1 -709 -4 -728
-8z"/>
<path d="M10203 4662 l-33 -3 0 -180 0 -179 515 0 515 0 0 -70 0 -70 -515 0
-515 0 0 -283 c0 -304 6 -349 54 -426 32 -50 100 -109 155 -135 45 -21 58 -21
614 -24 538 -2 567 -2 567 15 0 10 0 260 0 557 l0 538 -24 53 c-31 69 -92 134
-158 171 l-53 29 -545 5 c-300 3 -560 4 -577 2z m997 -917 l0 -95 -332 2 -333
3 -3 93 -3 92 336 0 335 0 0 -95z"/>
<path d="M11824 4661 c-2 -2 -4 -436 -4 -963 l0 -958 183 2 182 3 2 270 2 270
388 5 388 5 56 28 c69 33 132 99 167 175 l27 57 3 372 c2 221 0 399 -7 438
-13 86 -44 145 -107 205 -95 90 -53 84 -702 90 -316 3 -576 3 -578 1z m1026
-686 l0 -325 -330 0 -330 0 0 325 0 325 330 0 330 0 0 -325z"/>
<path d="M14472 4100 l3 -565 24 -48 c30 -62 105 -137 167 -168 l49 -24 450 0
450 0 44 23 c66 36 137 108 168 171 l28 56 0 558 0 558 -175 0 -175 0 -5 -503
-5 -503 -332 -3 -333 -2 0 504 0 505 -180 3 -180 3 2 -565z"/>
<path d="M16415 4659 c-80 -8 -150 -45 -212 -113 -90 -99 -87 -73 -91 -703
l-3 -553 186 0 185 0 0 505 0 505 370 0 370 0 -2 180 -3 181 -370 2 c-203 1
-397 -1 -430 -4z"/>
<path d="M17588 4645 c-85 -31 -149 -91 -199 -185 l-24 -45 0 -440 0 -440 24
-45 c32 -61 106 -136 166 -168 l50 -27 573 -3 572 -3 0 181 0 180 -515 0 -515
0 0 70 0 70 516 0 515 0 -3 313 c-3 308 -3 313 -28 362 -36 74 -114 148 -183
173 -56 21 -71 22 -485 21 -336 0 -435 -3 -464 -14z m802 -440 l0 -95 -335 0
-335 0 0 95 0 95 335 0 335 0 0 -95z"/>
</g>
</svg>
